<svg id="Layer_1" data-name="Layer 1" xmlns="http://www.w3.org/2000/svg" viewBox="0 0 400 199.98"><defs><style>.cls-1{fill:#ff7129;}</style></defs><path class="cls-1" d="M254.17,144.67c0,12.67.08,24.2-.1,35.73,0,1.38-1.17,3-2.21,4.08-27.4,28.89-55.29,57.34-82.17,86.71-27.76,30.32-81.21,38-119.3,15-49-29.61-65.54-91.53-35-138.32,22.72-34.79,56.15-50.69,97.47-47.23,23.74,2,43.14,14.58,59.64,31.48,2.06,2.11,3.93,4.42,5.87,6.66.15.17.08.54.15,1.19-8.11,0-16.16,0-24.22,0-11.69-.08-11.67-.12-11.64,11.73,0,7.94,0,15.87,0,24.92-3-2.72-5.26-4.76-7.54-6.75-16.14-14.1-34.17-19-54.64-10.74C64,165.81,54.87,181.43,55.81,200.92c1,20.32,10.54,34.44,27.53,40.63,18.78,6.86,38.93,2.08,52.13-12.15q21-22.62,42.2-45C189.36,172,201.09,159.65,213,147.49a10.22,10.22,0,0,1,6.46-2.69C230.68,144.53,241.91,144.67,254.17,144.67ZM158.81,267c1.85-1.61,2.78-2.31,3.57-3.14q39.84-41.73,79.63-83.53c.87-.91,1.87-2.19,1.9-3.33.17-7.2.09-14.4.09-22.36-7.27,0-13.91-.21-20.52.12a9.88,9.88,0,0,0-6,2.6q-34.2,35.47-68.12,71.21c-3.09,3.25-5.79,6.86-9.51,11.29h19ZM32.93,143.29l-1.28-.52c-1.57,1.9-3.26,3.7-4.69,5.7-20.87,29.27-23.5,73,1.6,105,4.79,6.1,9.54,10,17.66,8.36,3.14-.62,6.49-.36,9.74-.24,2.74.1,3.61-1.06,3.58-3.67,0-5.92.19-11.84.09-17.75a6.34,6.34,0,0,0-1.43-3.94c-14.07-15.05-17.46-47.17-4.57-67.41a27.83,27.83,0,0,0,1.48-3.39H32.93ZM153,129.79c-9.58-8.86-20.48-15-32.88-17.74-28.22-6.22-53.12,1.77-75.89,18.49-4.14,3.05-6.48,6.31-5.79,11.77.58,4.52.26,9.17.15,13.75-.06,2.56.71,3.81,3.51,3.76,5.47-.11,11,.14,16.42,0a7.86,7.86,0,0,0,4.28-1.73,58.86,58.86,0,0,1,64.65-5.83c1.49.81,3,1.61,5.22,2.79V129.79ZM43.85,267.48l-.48,1.15c1.82,1.43,3.61,2.9,5.46,4.3,31.85,24,75.5,20.59,101,1.83,1.32-1,3.12-2.48,3.16-3.78.29-8.24.15-16.5.15-25.53-7.22,0-13.54-.06-19.86.06a8.09,8.09,0,0,0-3.24,1.28C109.2,258,88.67,257.23,68.4,245.32c-.72-.42-1.49-.76-3.11-1.57v23.73Z" transform="translate(0 -100.01)"/><path class="cls-1" d="M259.85,174c0-10.34-.16-19.81.08-29.26.1-3.7-1.05-4.88-4.75-4.77-9.61.28-19.24.21-28.86.28-1.42,0-2.84,0-4.27,0l-.74-1.18c5.18-5.11,10-10.63,15.61-15.24,16.45-13.57,34.88-23.11,56.67-23.72,24.92-.7,47.61,6.36,67.54,21.58,1.29,1,2.8,2.7,2.83,4.11.24,10.93.13,21.86.13,33.35-1.11.14-2.8.48-4.5.56-8.57.41-17.15.75-25.72,1.11a41.12,41.12,0,0,1-16.37-2.49c-17.55-6.43-33.72-2.86-48.34,8.47Z" transform="translate(0 -100.01)"/><path class="cls-1" d="M234,232.72c11.37,0,21.88-.05,32.38.07a6.73,6.73,0,0,1,4,1.52c19.07,16.15,48.9,11.55,62.26-2.43a8.75,8.75,0,0,1,1.53-.79V268h37.52a10.18,10.18,0,0,1-1,2.14c-39.15,39.61-96,36.35-129.36,10.68-5.17-4-8-8.07-7.49-15.11C234.53,255,234,244.14,234,232.72Z" transform="translate(0 -100.01)"/><path class="cls-1" d="M340.88,261.33c0-14.06-.3-27.37.15-40.66.17-4.91,2.57-9.72,3.1-14.66,1.49-13.84-.7-26.86-10.77-38.32,2.65-.24,4.65-.52,6.66-.6,9.31-.37,18.63-.83,28-.92,3.42,0,4.2-1.22,4.13-4.44-.2-9.88-.07-19.77-.07-30.14,1.07,1,2.14,1.85,3.07,2.85,30.75,32.89,33.35,88,5.95,123.75-1.67,2.19-3.32,3.27-6.21,3.22C363.91,261.22,353,261.33,340.88,261.33Z" transform="translate(0 -100.01)"/><path class="cls-1" d="M199.59,157.34l-38,38.18c-3.88-3.91-8-8.06-12.11-12.31a4.39,4.39,0,0,1-1.13-2.75c-.07-11.67-.05-23.35-.05-35.46,1.51-.12,2.78-.32,4-.32,10.21,0,20.43-.15,30.63.11a10.81,10.81,0,0,1,6.13,2.52C192.83,150.44,196.17,154,199.59,157.34Z" transform="translate(0 -100.01)"/><path class="cls-1" d="M226,265.9,204.5,241.79l37.4-39L262.28,226c-8.53,0-15.69-.06-22.85,0-12.25.12-12.28.15-12.34,12.35-.05,9,0,18,0,27Z" transform="translate(0 -100.01)"/></svg>